<svg width="45" height="30" viewBox="0 0 45 30" fill="none" xmlns="http://www.w3.org/2000/svg">
<path d="M7.7354 29.1161C8.09417 29.1793 8.43607 28.9408 8.49971 28.5825C8.56351 28.2241 8.32454 27.8818 7.96612 27.8182C4.11419 27.1334 1.31837 23.7918 1.31837 19.8726C1.31837 15.4225 4.9387 11.8022 9.38881 11.8022C10.4502 11.8022 11.4643 12.0085 12.3934 12.3826L11.9911 13.1879C11.1837 12.8724 10.3066 12.6974 9.38881 12.6974C5.43239 12.6974 2.21363 15.9161 2.21363 19.8726C2.21363 23.8291 5.43239 27.0478 9.38881 27.0478C13.1229 27.0478 16.1985 24.1803 16.5324 20.5318H17.4315C17.1382 24.1613 14.4455 27.1722 10.8115 27.8182C10.4531 27.8819 10.2141 28.2241 10.2779 28.5825C10.3347 28.902 10.6126 29.1264 10.9261 29.1264C10.9644 29.1264 11.0033 29.123 11.0422 29.1161C14.7349 28.4596 17.5914 25.7047 18.4839 22.2054C18.8954 22.5849 19.407 22.8571 19.9742 22.9774V24.3245H19.3967C19.0326 24.3245 18.7375 24.6195 18.7375 24.9837C18.7375 25.3478 19.0326 25.6429 19.3967 25.6429H21.87C22.2341 25.6429 22.5292 25.3478 22.5292 24.9837C22.5292 24.6195 22.2341 24.3245 21.87 24.3245H21.2926V22.9774C22.7275 22.673 23.8075 21.3968 23.8075 19.8725C23.8075 19.1622 23.5729 18.5057 23.1772 17.9763L30.9742 9.34035L31.7173 11.3301C28.4784 12.8124 26.2224 16.0839 26.2224 19.8725C26.2224 25.0495 30.4342 29.2614 35.6112 29.2614C40.7882 29.2614 45 25.0495 45 19.8725C45 14.6956 40.7882 10.4837 35.6112 10.4837C34.6879 10.4837 33.7955 10.6184 32.952 10.8679L30.6954 4.82528H34.4721C34.7326 5.45951 35.3563 5.90766 36.0833 5.90766C36.2243 5.90766 36.3391 6.02245 36.3391 6.16351C36.3391 6.30458 36.2243 6.41937 36.0833 6.41937H35.2809C34.3206 6.41937 33.5393 7.20072 33.5393 8.16093C33.5393 9.12114 34.3207 9.90241 35.2809 9.90241H36.0833C38.145 9.90241 39.8223 8.22509 39.8223 6.16343C39.8223 4.10176 38.145 2.42444 36.0833 2.42444C35.3563 2.42444 34.7326 2.8726 34.4721 3.50674H29.7456C29.2949 3.50674 28.9653 3.95902 29.1281 4.39655L29.7966 6.18681H16.3533L15.9336 5.06303C16.201 4.89709 16.4286 4.66611 16.589 4.3838C16.6946 4.19791 16.8931 4.08234 17.107 4.08234H19.91C20.6857 4.08234 21.2142 3.29544 20.922 2.57746L20.9219 2.57737C20.4716 1.47214 19.4093 0.757935 18.2157 0.757935H11.4626C10.562 0.757935 9.82932 1.49068 9.82932 2.39131C9.82932 4.02398 11.1576 5.35228 12.7904 5.35228H14.6343L15.178 6.80793L12.9842 11.1996C11.8762 10.7385 10.6618 10.4835 9.3889 10.4835C4.21184 10.4838 0 14.6957 0 19.8726C0 24.4319 3.25321 28.3193 7.7354 29.1161ZM35.6112 11.8022C40.0613 11.8022 43.6816 15.4225 43.6816 19.8726C43.6816 24.3227 40.0613 27.9431 35.6112 27.9431C31.1611 27.9431 27.5407 24.3227 27.5407 19.8726C27.5407 16.6489 29.441 13.8609 32.18 12.569L32.4943 13.4106C30.0948 14.5727 28.4361 17.0325 28.4361 19.8726C28.4361 23.8291 31.6548 27.0478 35.6113 27.0478C38.9352 27.0478 41.8022 24.7936 42.5837 21.5659C42.6694 21.2121 42.452 20.8558 42.0982 20.7701C41.7442 20.6841 41.3881 20.9018 41.3024 21.2556C40.6647 23.8897 38.3244 25.7294 35.6113 25.7294C32.3819 25.7294 29.7545 23.1019 29.7545 19.8725C29.7545 17.5976 31.059 15.623 32.9585 14.6536L34.3646 18.4186C33.955 18.7704 33.6946 19.2915 33.6946 19.8726C33.6946 20.9294 34.5544 21.7893 35.6113 21.7893C36.6682 21.7893 37.528 20.9295 37.528 19.8726C37.528 18.8157 36.6682 17.956 35.6113 17.956C35.6072 17.956 35.6033 17.9562 35.5993 17.9562L34.193 14.1903C34.6474 14.0768 35.1222 14.0156 35.6114 14.0156C38.3245 14.0156 40.6648 15.8554 41.3025 18.4895C41.3882 18.8432 41.7442 19.0606 42.0983 18.975C42.4521 18.8893 42.6695 18.5331 42.5838 18.1792C41.8023 14.9514 38.9351 12.6972 35.6114 12.6972C34.9602 12.6972 34.3297 12.7859 33.7296 12.9493L33.4147 12.1058C34.1131 11.9082 34.85 11.8022 35.6112 11.8022ZM35.6112 19.2744C35.9411 19.2744 36.2095 19.5429 36.2095 19.8727C36.2095 20.2026 35.9411 20.471 35.6112 20.471C35.2813 20.471 35.0129 20.2026 35.0129 19.8727C35.0129 19.5429 35.2813 19.2744 35.6112 19.2744ZM13.5721 12.9732C15.7238 14.2827 17.2175 16.5701 17.4322 19.2135H16.5324C16.3225 16.9202 15.0294 14.9363 13.1699 13.7783L13.5721 12.9732ZM11.1887 19.2134C11.0983 18.9676 10.9586 18.7455 10.7822 18.5586L12.5778 14.9639C14.0079 15.8962 15.0074 17.4351 15.2076 19.2134H11.1887ZM9.38881 19.2744C9.71867 19.2744 9.98709 19.5429 9.98709 19.8727C9.98709 20.2026 9.71867 20.471 9.38881 20.471C9.05887 20.471 8.79045 20.2026 8.79045 19.8727C8.79045 19.5429 9.05887 19.2744 9.38881 19.2744ZM9.38881 25.7294C6.15942 25.7294 3.532 23.102 3.532 19.8726C3.532 16.6431 6.15942 14.0157 9.38881 14.0157C10.095 14.0157 10.7724 14.1414 11.3999 14.3715L9.60309 17.9683C9.53269 17.9604 9.46124 17.956 9.38881 17.956C8.33201 17.956 7.47208 18.8157 7.47208 19.8726C7.47208 20.9295 8.33192 21.7893 9.38881 21.7893C10.2141 21.7893 10.9193 21.2649 11.1887 20.5318H15.2076C14.8788 23.4519 12.3953 25.7294 9.38881 25.7294ZM21.2926 21.6052V19.8726C21.2926 19.5085 20.9976 19.2134 20.6335 19.2134C20.2693 19.2134 19.9743 19.5085 19.9743 19.8726V21.6052C19.2759 21.3386 18.7777 20.6636 18.7777 19.8726C18.7777 18.8494 19.6102 18.017 20.6335 18.017C21.6567 18.017 22.4891 18.8495 22.4891 19.8726C22.4891 20.6636 21.9909 21.3386 21.2926 21.6052ZM36.0833 3.74308C37.4181 3.74308 38.504 4.82888 38.504 6.16369C38.504 7.4985 37.4181 8.5843 36.0833 8.5843H35.2809C35.0475 8.5843 34.8577 8.39446 34.8577 8.1612C34.8577 7.92785 35.0475 7.738 35.2809 7.738H36.0833C36.9513 7.738 37.6575 7.03179 37.6575 6.16378C37.6575 5.29576 36.9513 4.58956 36.0833 4.58956C35.8499 4.58956 35.6601 4.39971 35.6601 4.16636C35.6601 3.93292 35.8499 3.74308 36.0833 3.74308ZM30.2889 7.50544L30.4545 7.94876L22.1868 17.1062C21.7273 16.8471 21.1975 16.6986 20.6335 16.6986C20.5161 16.6986 20.4004 16.7055 20.2862 16.718L16.8458 7.50553H30.2889V7.50544ZM11.1476 2.39166C11.1476 2.2179 11.2888 2.07666 11.4625 2.07666H18.2157C18.7506 2.07666 19.2376 2.33813 19.5327 2.76432H17.1069C16.4198 2.76432 15.7821 3.13548 15.4427 3.73279C15.337 3.91877 15.1385 4.03435 14.9246 4.03435H12.7902C11.8846 4.03426 11.1476 3.29738 11.1476 2.39166ZM15.8084 8.4965L19.0337 17.133C18.836 17.2489 18.6518 17.3852 18.4842 17.5396C17.8586 15.1021 16.276 13.0443 14.1627 11.7912L15.8084 8.4965Z" fill="#00B341"/>
</svg>
